<svg xmlns="http://www.w3.org/2000/svg" viewBox="0 0 32 32" shape-rendering="crispEdges">
  <defs>
    <radialGradient id="sun-body" cx="50%" cy="42%" r="55%">
      <stop offset="0%" stop-color="#fff7a0" />
      <stop offset="55%" stop-color="#ffd83a" />
      <stop offset="100%" stop-color="#e89c00" />
    </radialGradient>
  </defs>
  <g>
    <polygon points="16,1 18,5 14,5" fill="#ffb400" />
    <polygon points="16,31 18,27 14,27" fill="#ffb400" />
    <polygon points="1,16 5,14 5,18" fill="#ffb400" />
    <polygon points="31,16 27,14 27,18" fill="#ffb400" />
    <polygon points="5,5 9,7 7,9" fill="#ffb400" />
    <polygon points="27,5 23,7 25,9" fill="#ffb400" />
    <polygon points="5,27 9,25 7,23" fill="#ffb400" />
    <polygon points="27,27 23,25 25,23" fill="#ffb400" />
  </g>
  <circle cx="16" cy="16" r="10" fill="url(#sun-body)" stroke="#a86a00" stroke-width="1" />
  <circle cx="12" cy="14" r="1.4" fill="#1a1a1a" />
  <circle cx="20" cy="14" r="1.4" fill="#1a1a1a" />
  <circle cx="10" cy="17" r="1.2" fill="#ff8a8a" opacity="0.7" />
  <circle cx="22" cy="17" r="1.2" fill="#ff8a8a" opacity="0.7" />
  <path d="M12 19 Q16 22 20 19" stroke="#1a1a1a" stroke-width="1.4" fill="none" stroke-linecap="round" />
</svg>
